<?xml version="1.0" encoding="UTF-8" standalone="no"?>
<!-- Created with Inkscape (http://www.inkscape.org/) -->

<svg
   width="210mm"
   height="297mm"
   viewBox="0 0 210 297"
   version="1.1"
   id="svg8"
   inkscape:version="1.1.1 (3bf5ae0d25, 2021-09-20)"
   sodipodi:docname="icon.svg"
   xmlns:inkscape="http://www.inkscape.org/namespaces/inkscape"
   xmlns:sodipodi="http://sodipodi.sourceforge.net/DTD/sodipodi-0.dtd"
   xmlns="http://www.w3.org/2000/svg"
   xmlns:svg="http://www.w3.org/2000/svg"
   xmlns:rdf="http://www.w3.org/1999/02/22-rdf-syntax-ns#"
   xmlns:cc="http://creativecommons.org/ns#"
   xmlns:dc="http://purl.org/dc/elements/1.1/">
  <defs
     id="defs2" />
  <sodipodi:namedview
     id="base"
     pagecolor="#ffffff"
     bordercolor="#666666"
     borderopacity="1.0"
     inkscape:pageopacity="0.0"
     inkscape:pageshadow="2"
     inkscape:zoom="0.16403309"
     inkscape:cx="-579.15144"
     inkscape:cy="746.80054"
     inkscape:document-units="mm"
     inkscape:current-layer="layer1"
     showgrid="false"
     inkscape:window-width="1330"
     inkscape:window-height="743"
     inkscape:window-x="36"
     inkscape:window-y="0"
     inkscape:window-maximized="1"
     inkscape:pagecheckerboard="0" />
  <metadata
     id="metadata5">
    <rdf:RDF>
      <cc:Work
         rdf:about="">
        <dc:format>image/svg+xml</dc:format>
        <dc:type
           rdf:resource="http://purl.org/dc/dcmitype/StillImage" />
        <dc:title />
      </cc:Work>
    </rdf:RDF>
  </metadata>
  <g
     inkscape:label="Layer 1"
     inkscape:groupmode="layer"
     id="layer1">
    <rect
       style="fill:#ef4444;fill-opacity:1;stroke-width:0.264583"
       id="rect815"
       width="339.42264"
       height="339.42264"
       x="-236.96388"
       y="-14.452381"
       inkscape:export-xdpi="74.832954"
       inkscape:export-ydpi="74.832954"
       inkscape:export-filename="/home/zen/aplikasi-android/tantangan-ngaji/tambahan/icon.png" />
    <path
       fill="currentColor"
       d="m -75.20537,91.63725 -0.9193,3.822225 c -1.46866,6.597165 -10.93323,17.456965 -20.64288,30.739315 -9.71465,13.28717 -19.4243,29.84368 -19.4243,50.62844 0,9.80768 3.00004,20.2857 10.39978,28.44882 7.39974,8.1583 19.19438,13.6055 35.17804,13.6055 0.70474,0 1.29664,-0.12948 1.98714,-0.14798 0.46057,0.0185 0.89525,0.14798 1.37433,0.14798 1.49271,0 2.88757,-0.16648 4.28225,-0.3089 0.42173,-0.037 0.80277,-0.11099 1.22265,-0.14798 16.38505,-1.36138 27.25965,-6.41126 33.95465,-13.92346 7.854954,-8.80922 9.479734,-19.99216 9.479734,-29.66759 0,-21.85167 -12.577614,-42.17159 -24.778454,-57.20118 -12.19584,-15.02459 -24.4701,-24.92513 -24.4701,-24.92513 l -1.36509,-1.07098 z m 5.50565,12.23506 c 3.95929,3.47467 10.62988,9.76847 18.96428,20.03599 11.5107,14.18279 22.63482,32.97579 22.63482,50.92717 0,8.58392 -1.51305,16.89889 -7.03756,23.09466 a 25.443951,25.443951 0 0 1 -4.28225,3.82223 c 2.64267,-7.62966 2.06519,-16.3068 0.3089,-24.92994 -2.00656,-9.84191 -5.81418,-19.72784 -9.48455,-27.68064 -3.67055,-7.95262 -6.80284,-13.57109 -9.47973,-16.66898 l -1.37433,-1.68323 h -9.48454 l 1.8349,6.2692 c 5.12387,16.65419 2.42737,27.9888 -0.45502,31.35101 -1.43353,1.68323 -2.0652,1.83491 -3.52369,1.37988 -1.44832,-0.46058 -4.06695,-2.34912 -6.57274,-7.03757 l -3.67037,-6.8809 -4.59059,6.2692 c -9.15178,12.33291 -12.67547,25.85017 -9.63141,37.165 0.2645,0.99329 0.68439,1.96734 1.07098,2.90699 a 29.515768,29.515768 0 0 1 -3.9789,-3.51869 c -5.46643,-6.01968 -7.95262,-14.07033 -7.95262,-21.87127 0,-17.71647 8.3344,-32.15378 17.58902,-44.80964 7.53181,-10.30193 14.87292,-19.00349 19.11595,-28.14047 z m 14.99037,57.35285 c 2.27088,5.75535 4.73746,11.56453 5.96086,17.58421 1.78126,8.7602 1.74242,16.76683 -0.76393,21.87608 -1.87449,3.81742 -4.78149,6.63156 -10.70812,7.79632 -0.64555,0.12948 -1.41503,0.21087 -2.13863,0.3089 -1.53156,0.12948 -3.21053,0.24416 -4.89413,0.30335 -0.44023,0 -0.80277,0.0185 -1.22266,0 -10.59066,-0.34219 -15.6755,-5.06523 -17.58902,-12.23505 -1.5852,-5.90703 0.47907,-14.14376 4.89395,-22.48315 2.18265,2.25626 4.49274,3.90065 7.18924,4.74245 4.99198,1.5667 10.55146,-0.34219 13.91866,-4.28225 2.88739,-3.38181 4.5856,-8.06545 5.34916,-13.61031 z"
       id="path827"
       style="fill:#ffffff;stroke-width:4.894"
       inkscape:export-filename="/home/zen/aplikasi-android/tantangan-ngaji/tambahan/icon.png"
       inkscape:export-xdpi="74.832954"
       inkscape:export-ydpi="74.832954" />
  </g>
</svg>
